<svg width="14" height="25" viewBox="0 0 14 25" fill="none" xmlns="http://www.w3.org/2000/svg">
<path d="M0.33064 11.7212L12.2111 0.297103C12.4093 0.10639 12.6727 5.53939e-07 12.9465 5.65911e-07C13.2204 5.77882e-07 13.4838 0.10639 13.682 0.297103L13.6948 0.310011C13.7912 0.402465 13.868 0.513751 13.9205 0.637099C13.9729 0.760446 14 0.893278 14 1.02751C14 1.16175 13.9729 1.29458 13.9205 1.41793C13.868 1.54127 13.7912 1.65256 13.6948 1.74501L2.50719 12.5022L13.6948 23.255C13.7912 23.3474 13.868 23.4587 13.9205 23.5821C13.9729 23.7054 14 23.8383 14 23.9725C14 24.1067 13.9729 24.2396 13.9205 24.3629C13.868 24.4862 13.7912 24.5975 13.6948 24.69L13.682 24.7029C13.4838 24.8936 13.2204 25 12.9465 25C12.6727 25 12.4093 24.8936 12.2111 24.7029L0.33064 13.2788C0.226156 13.1784 0.142976 13.0575 0.0861408 12.9236C0.0293059 12.7898 -5.52759e-07 12.6456 -5.46392e-07 12.5C-5.40026e-07 12.3544 0.0293059 12.2102 0.0861408 12.0764C0.142976 11.9425 0.226156 11.8216 0.33064 11.7212Z" fill="#552474"/>
</svg>
