<svg width="20" height="14" viewBox="0 0 20 14" fill="none" xmlns="http://www.w3.org/2000/svg">
<path d="M6.82891 10.9443L17.7725 0.374165C18.0308 0.124722 18.3377 0 18.6932 0C19.0488 0 19.3552 0.124722 19.6126 0.374165C19.8709 0.623608 20 0.92003 20 1.26343C20 1.60683 19.8709 1.90284 19.6126 2.15145L7.7328 13.6258C7.47455 13.8753 7.17325 14 6.82891 14C6.48456 14 6.18326 13.8753 5.92501 13.6258L0.372486 8.26281C0.114229 8.01336 -0.00973429 7.71694 0.000595977 7.37354C0.0109262 7.03014 0.14565 6.73413 0.404767 6.48552C0.663024 6.23608 0.96992 6.11136 1.32545 6.11136C1.68099 6.11136 1.98745 6.23608 2.24485 6.48552L6.82891 10.9443Z" fill="black"/>
</svg>
